<svg width="60" height="65" viewBox="0 0 60 65" fill="none" xmlns="http://www.w3.org/2000/svg">
<g filter="url(#filter0_d_108_3317)">
<path fill-rule="evenodd" clip-rule="evenodd" d="M30 60C46.5685 60 60 46.5685 60 30C60 13.4315 46.5685 0 30 0C13.4315 0 0 13.4315 0 30C0 46.5685 13.4315 60 30 60Z" fill="white"/>
</g>
<path d="M49.5666 30.2625C49.5666 35.7634 47.8263 41.0049 44.6488 45.3536C44.2666 45.8766 43.5329 45.9908 43.0099 45.6086C42.4869 45.2264 42.3727 44.4927 42.7548 43.9697C45.6412 40.0194 47.2209 35.2617 47.2209 30.2625C47.2209 25.3368 45.6875 20.6449 42.8793 16.7273C42.5019 16.2009 42.6227 15.4682 43.1492 15.0908C43.6757 14.7134 44.4084 14.8343 44.7858 15.3607C47.8773 19.6735 49.5666 24.8425 49.5666 30.2625Z" fill="#FFCB08"/>
<path d="M39.5614 42.0503C41.7839 38.8747 42.997 35.078 42.997 31.0996C42.997 27.0823 41.76 23.2507 39.4971 20.0575C39.1226 19.529 38.3905 19.4042 37.862 19.7787C37.3335 20.1532 37.2087 20.8853 37.5832 21.4138C39.5671 24.2132 40.6513 27.5716 40.6513 31.0996C40.6513 34.5935 39.588 37.9214 37.6396 40.7053C37.2682 41.236 37.3973 41.9673 37.928 42.3387C38.4587 42.7101 39.19 42.581 39.5614 42.0503Z" fill="#FFCB08"/>
<path d="M18.6019 26.1587L23.7221 21.6343C25.0132 20.4934 27.0465 21.4101 27.0465 23.133V38.5119C27.0465 40.2348 25.0132 41.1515 23.7221 40.0106L18.6019 35.4862V35.483C18.5613 35.4855 18.5204 35.4867 18.4791 35.4867H13.5654C12.4609 35.4867 11.5654 34.5913 11.5654 33.4867V28.1593C11.5654 27.0547 12.4609 26.1593 13.5654 26.1593H18.4791C18.5204 26.1593 18.5613 26.1605 18.6019 26.163V26.1587Z" fill="#FFCB08"/>
<path d="M36.6987 31.1007C36.6987 33.7169 35.8875 36.2142 34.4022 38.3015C34.0266 38.8293 33.2943 38.9527 32.7666 38.5771C32.2388 38.2015 32.1154 37.4693 32.491 36.9415C33.696 35.2482 34.3531 33.2254 34.3531 31.1007C34.3531 28.9415 33.6743 26.8877 32.4326 25.1788C32.0519 24.6548 32.168 23.9213 32.6921 23.5406C33.2161 23.1598 33.9496 23.276 34.3303 23.8C35.8608 25.9064 36.6987 28.442 36.6987 31.1007Z" fill="#FFCB08"/>
<defs>
<filter id="filter0_d_108_3317" x="0" y="0" width="60" height="64" filterUnits="userSpaceOnUse" color-interpolation-filters="sRGB">
<feFlood flood-opacity="0" result="BackgroundImageFix"/>
<feColorMatrix in="SourceAlpha" type="matrix" values="0 0 0 0 0 0 0 0 0 0 0 0 0 0 0 0 0 0 127 0" result="hardAlpha"/>
<feOffset dy="4"/>
<feComposite in2="hardAlpha" operator="out"/>
<feColorMatrix type="matrix" values="0 0 0 0 0 0 0 0 0 0 0 0 0 0 0 0 0 0 0.1 0"/>
<feBlend mode="normal" in2="BackgroundImageFix" result="effect1_dropShadow_108_3317"/>
<feBlend mode="normal" in="SourceGraphic" in2="effect1_dropShadow_108_3317" result="shape"/>
</filter>
</defs>
</svg>
