<svg width="223" height="19" viewBox="0 0 223 19" fill="none" xmlns="http://www.w3.org/2000/svg">
<path d="M9.36 18.24C8.176 18.24 7.056 18.016 6 17.568C4.96 17.12 4.04 16.504 3.24 15.72C2.456 14.92 1.84 14 1.392 12.96C0.944 11.904 0.72 10.784 0.72 9.6C0.72 8.4 0.944 7.28 1.392 6.24C1.84 5.2 2.456 4.288 3.24 3.504C4.04 2.704 4.96 2.08 6 1.632C7.056 1.184 8.176 0.959999 9.36 0.959999C10.544 0.959999 11.656 1.184 12.696 1.632C13.752 2.08 14.672 2.704 15.456 3.504C16.256 4.288 16.88 5.2 17.328 6.24C17.776 7.28 18 8.4 18 9.6C18 10.784 17.776 11.904 17.328 12.96C16.88 14 16.256 14.92 15.456 15.72C14.672 16.504 13.752 17.12 12.696 17.568C11.656 18.016 10.544 18.24 9.36 18.24ZM9.36 16.464C10.304 16.464 11.192 16.288 12.024 15.936C12.856 15.584 13.584 15.096 14.208 14.472C14.848 13.832 15.344 13.096 15.696 12.264C16.048 11.432 16.224 10.544 16.224 9.6C16.224 8.64 16.048 7.752 15.696 6.936C15.344 6.104 14.848 5.376 14.208 4.752C13.584 4.112 12.856 3.616 12.024 3.264C11.192 2.912 10.304 2.736 9.36 2.736C8.416 2.736 7.528 2.912 6.696 3.264C5.88 3.616 5.152 4.112 4.512 4.752C3.888 5.376 3.392 6.104 3.024 6.936C2.672 7.752 2.496 8.64 2.496 9.6C2.496 10.544 2.672 11.432 3.024 12.264C3.376 13.096 3.864 13.832 4.488 14.472C5.128 15.096 5.864 15.584 6.696 15.936C7.528 16.288 8.416 16.464 9.36 16.464ZM9.768 14.736C8.904 14.736 8.064 14.536 7.248 14.136C6.432 13.72 5.76 13.128 5.232 12.36C4.72 11.592 4.464 10.672 4.464 9.6C4.464 8.672 4.704 7.824 5.184 7.056C5.664 6.272 6.304 5.648 7.104 5.184C7.92 4.704 8.808 4.464 9.768 4.464C10.648 4.464 11.448 4.656 12.168 5.04C12.488 5.184 12.672 5.432 12.72 5.784C12.768 6.12 12.696 6.416 12.504 6.672C12.344 6.88 12.136 7 11.88 7.032C11.624 7.064 11.384 7.024 11.16 6.912C10.952 6.816 10.728 6.744 10.488 6.696C10.264 6.648 10.024 6.624 9.768 6.624C9.192 6.624 8.664 6.76 8.184 7.032C7.72 7.304 7.344 7.664 7.056 8.112C6.768 8.56 6.624 9.056 6.624 9.6C6.624 10.224 6.776 10.76 7.08 11.208C7.384 11.656 7.776 12 8.256 12.24C8.736 12.464 9.24 12.576 9.768 12.576C10.008 12.576 10.24 12.552 10.464 12.504C10.704 12.456 10.936 12.384 11.16 12.288C11.384 12.176 11.624 12.144 11.88 12.192C12.136 12.224 12.344 12.344 12.504 12.552C12.728 12.84 12.8 13.152 12.72 13.488C12.656 13.808 12.48 14.04 12.192 14.184C11.808 14.376 11.408 14.52 10.992 14.616C10.592 14.696 10.184 14.736 9.768 14.736ZM29.3823 1.176C29.6063 1.176 29.8383 1.24 30.0783 1.368C30.3343 1.48 30.5263 1.632 30.6543 1.824L36.4863 10.8L35.2863 10.752L41.2623 1.824C41.5663 1.392 41.9583 1.176 42.4383 1.176C42.8223 1.176 43.1663 1.312 43.4703 1.584C43.7743 1.856 43.9263 2.208 43.9263 2.64V16.536C43.9263 16.952 43.7903 17.304 43.5183 17.592C43.2463 17.864 42.8863 18 42.4383 18C41.9903 18 41.6223 17.864 41.3343 17.592C41.0623 17.304 40.9263 16.952 40.9263 16.536V5.232L41.8623 5.448L36.9663 12.912C36.8223 13.088 36.6383 13.24 36.4143 13.368C36.2063 13.496 35.9903 13.552 35.7663 13.536C35.5583 13.552 35.3423 13.496 35.1183 13.368C34.9103 13.24 34.7343 13.088 34.5903 12.912L30.0063 5.664L30.6303 4.392V16.536C30.6303 16.952 30.5023 17.304 30.2463 17.592C29.9903 17.864 29.6543 18 29.2383 18C28.8383 18 28.5103 17.864 28.2543 17.592C27.9983 17.304 27.8703 16.952 27.8703 16.536V2.64C27.8703 2.24 28.0143 1.896 28.3023 1.608C28.6063 1.32 28.9663 1.176 29.3823 1.176ZM60.0589 11.592C60.0589 12.904 59.7629 14.064 59.1709 15.072C58.5949 16.064 57.8109 16.84 56.8189 17.4C55.8429 17.96 54.7469 18.24 53.5309 18.24C52.3149 18.24 51.2109 17.96 50.2189 17.4C49.2429 16.84 48.4589 16.064 47.8669 15.072C47.2909 14.064 47.0029 12.904 47.0029 11.592C47.0029 10.28 47.2909 9.128 47.8669 8.136C48.4589 7.128 49.2429 6.344 50.2189 5.784C51.2109 5.208 52.3149 4.92 53.5309 4.92C54.7469 4.92 55.8429 5.208 56.8189 5.784C57.8109 6.344 58.5949 7.128 59.1709 8.136C59.7629 9.128 60.0589 10.28 60.0589 11.592ZM57.1789 11.592C57.1789 10.776 57.0109 10.072 56.6749 9.48C56.3549 8.872 55.9149 8.4 55.3549 8.064C54.8109 7.728 54.2029 7.56 53.5309 7.56C52.8589 7.56 52.2429 7.728 51.6829 8.064C51.1389 8.4 50.6989 8.872 50.3629 9.48C50.0429 10.072 49.8829 10.776 49.8829 11.592C49.8829 12.392 50.0429 13.096 50.3629 13.704C50.6989 14.296 51.1389 14.76 51.6829 15.096C52.2429 15.432 52.8589 15.6 53.5309 15.6C54.2029 15.6 54.8109 15.432 55.3549 15.096C55.9149 14.76 56.3549 14.296 56.6749 13.704C57.0109 13.096 57.1789 12.392 57.1789 11.592ZM68.6 4.92C69.512 4.92 70.304 5.016 70.976 5.208C71.664 5.4 72.192 5.672 72.56 6.024C72.944 6.36 73.136 6.768 73.136 7.248C73.136 7.568 73.04 7.872 72.848 8.16C72.656 8.432 72.376 8.568 72.008 8.568C71.752 8.568 71.536 8.536 71.36 8.472C71.2 8.392 71.056 8.296 70.928 8.184C70.8 8.072 70.648 7.968 70.472 7.872C70.312 7.776 70.064 7.704 69.728 7.656C69.408 7.592 69.168 7.56 69.008 7.56C68.192 7.56 67.496 7.736 66.92 8.088C66.36 8.44 65.928 8.92 65.624 9.528C65.32 10.12 65.168 10.808 65.168 11.592C65.168 12.36 65.32 13.048 65.624 13.656C65.944 14.248 66.376 14.72 66.92 15.072C67.48 15.424 68.12 15.6 68.84 15.6C69.24 15.6 69.584 15.576 69.872 15.528C70.16 15.48 70.4 15.408 70.592 15.312C70.816 15.184 71.016 15.048 71.192 14.904C71.368 14.76 71.632 14.688 71.984 14.688C72.4 14.688 72.72 14.824 72.944 15.096C73.168 15.352 73.28 15.672 73.28 16.056C73.28 16.456 73.056 16.824 72.608 17.16C72.16 17.48 71.568 17.744 70.832 17.952C70.112 18.144 69.328 18.24 68.48 18.24C67.216 18.24 66.12 17.952 65.192 17.376C64.264 16.784 63.544 15.984 63.032 14.976C62.536 13.968 62.288 12.84 62.288 11.592C62.288 10.28 62.552 9.128 63.08 8.136C63.624 7.128 64.368 6.344 65.312 5.784C66.272 5.208 67.368 4.92 68.6 4.92ZM82.4094 4.92C83.5614 4.92 84.4334 5.168 85.0254 5.664C85.6334 6.16 86.0494 6.824 86.2734 7.656C86.4974 8.472 86.6094 9.384 86.6094 10.392V16.536C86.6094 16.952 86.4734 17.304 86.2014 17.592C85.9294 17.864 85.5854 18 85.1694 18C84.7534 18 84.4094 17.864 84.1374 17.592C83.8654 17.304 83.7294 16.952 83.7294 16.536V10.392C83.7294 9.864 83.6654 9.392 83.5374 8.976C83.4094 8.544 83.1774 8.2 82.8414 7.944C82.5054 7.688 82.0254 7.56 81.4014 7.56C80.7934 7.56 80.2734 7.688 79.8414 7.944C79.4094 8.2 79.0814 8.544 78.8574 8.976C78.6494 9.392 78.5454 9.864 78.5454 10.392V16.536C78.5454 16.952 78.4094 17.304 78.1374 17.592C77.8654 17.864 77.5214 18 77.1054 18C76.6894 18 76.3454 17.864 76.0734 17.592C75.8014 17.304 75.6654 16.952 75.6654 16.536V1.704C75.6654 1.288 75.8014 0.943999 76.0734 0.671999C76.3454 0.383999 76.6894 0.24 77.1054 0.24C77.5214 0.24 77.8654 0.383999 78.1374 0.671999C78.4094 0.943999 78.5454 1.288 78.5454 1.704V7.656L78.1854 7.584C78.3294 7.312 78.5294 7.024 78.7854 6.72C79.0414 6.4 79.3534 6.104 79.7214 5.832C80.0894 5.56 80.4974 5.344 80.9454 5.184C81.3934 5.008 81.8814 4.92 82.4094 4.92ZM92.7484 16.536C92.7484 16.952 92.6124 17.304 92.3404 17.592C92.0684 17.864 91.7244 18 91.3084 18C90.8924 18 90.5484 17.864 90.2764 17.592C90.0044 17.304 89.8684 16.952 89.8684 16.536V6.624C89.8684 6.208 90.0044 5.864 90.2764 5.592C90.5484 5.304 90.8924 5.16 91.3084 5.16C91.7244 5.16 92.0684 5.304 92.3404 5.592C92.6124 5.864 92.7484 6.208 92.7484 6.624V16.536ZM91.2844 3.6C90.7404 3.6 90.3564 3.512 90.1324 3.336C89.9084 3.16 89.7964 2.848 89.7964 2.4V1.944C89.7964 1.48 89.9164 1.168 90.1564 1.008C90.4124 0.831999 90.7964 0.743999 91.3084 0.743999C91.8684 0.743999 92.2604 0.831999 92.4844 1.008C92.7084 1.184 92.8204 1.496 92.8204 1.944V2.4C92.8204 2.864 92.7004 3.184 92.4604 3.36C92.2204 3.52 91.8284 3.6 91.2844 3.6ZM97.7689 1.176C97.9929 1.176 98.2249 1.24 98.4649 1.368C98.7209 1.48 98.9129 1.632 99.0409 1.824L104.873 10.8L103.673 10.752L109.649 1.824C109.953 1.392 110.345 1.176 110.825 1.176C111.209 1.176 111.553 1.312 111.857 1.584C112.161 1.856 112.313 2.208 112.313 2.64V16.536C112.313 16.952 112.177 17.304 111.905 17.592C111.633 17.864 111.273 18 110.825 18C110.377 18 110.009 17.864 109.721 17.592C109.449 17.304 109.313 16.952 109.313 16.536V5.232L110.249 5.448L105.353 12.912C105.209 13.088 105.025 13.24 104.801 13.368C104.593 13.496 104.377 13.552 104.153 13.536C103.945 13.552 103.729 13.496 103.505 13.368C103.297 13.24 103.121 13.088 102.977 12.912L98.3929 5.664L99.0169 4.392V16.536C99.0169 16.952 98.8889 17.304 98.6329 17.592C98.3769 17.864 98.0409 18 97.6249 18C97.2249 18 96.8969 17.864 96.6409 17.592C96.3849 17.304 96.2569 16.952 96.2569 16.536V2.64C96.2569 2.24 96.4009 1.896 96.6889 1.608C96.9929 1.32 97.3529 1.176 97.7689 1.176ZM128.446 11.592C128.446 12.904 128.15 14.064 127.558 15.072C126.982 16.064 126.198 16.84 125.206 17.4C124.23 17.96 123.134 18.24 121.918 18.24C120.702 18.24 119.598 17.96 118.606 17.4C117.63 16.84 116.846 16.064 116.254 15.072C115.678 14.064 115.39 12.904 115.39 11.592C115.39 10.28 115.678 9.128 116.254 8.136C116.846 7.128 117.63 6.344 118.606 5.784C119.598 5.208 120.702 4.92 121.918 4.92C123.134 4.92 124.23 5.208 125.206 5.784C126.198 6.344 126.982 7.128 127.558 8.136C128.15 9.128 128.446 10.28 128.446 11.592ZM125.566 11.592C125.566 10.776 125.398 10.072 125.062 9.48C124.742 8.872 124.302 8.4 123.742 8.064C123.198 7.728 122.59 7.56 121.918 7.56C121.246 7.56 120.63 7.728 120.07 8.064C119.526 8.4 119.086 8.872 118.75 9.48C118.43 10.072 118.27 10.776 118.27 11.592C118.27 12.392 118.43 13.096 118.75 13.704C119.086 14.296 119.526 14.76 120.07 15.096C120.63 15.432 121.246 15.6 121.918 15.6C122.59 15.6 123.198 15.432 123.742 15.096C124.302 14.76 124.742 14.296 125.062 13.704C125.398 13.096 125.566 12.392 125.566 11.592ZM136.987 4.92C137.899 4.92 138.691 5.016 139.363 5.208C140.051 5.4 140.579 5.672 140.947 6.024C141.331 6.36 141.523 6.768 141.523 7.248C141.523 7.568 141.427 7.872 141.235 8.16C141.043 8.432 140.763 8.568 140.395 8.568C140.139 8.568 139.923 8.536 139.747 8.472C139.587 8.392 139.443 8.296 139.315 8.184C139.187 8.072 139.035 7.968 138.859 7.872C138.699 7.776 138.451 7.704 138.115 7.656C137.795 7.592 137.555 7.56 137.395 7.56C136.579 7.56 135.883 7.736 135.307 8.088C134.747 8.44 134.315 8.92 134.011 9.528C133.707 10.12 133.555 10.808 133.555 11.592C133.555 12.36 133.707 13.048 134.011 13.656C134.331 14.248 134.763 14.72 135.307 15.072C135.867 15.424 136.507 15.6 137.227 15.6C137.627 15.6 137.971 15.576 138.259 15.528C138.547 15.48 138.787 15.408 138.979 15.312C139.203 15.184 139.403 15.048 139.579 14.904C139.755 14.76 140.019 14.688 140.371 14.688C140.787 14.688 141.107 14.824 141.331 15.096C141.555 15.352 141.667 15.672 141.667 16.056C141.667 16.456 141.443 16.824 140.995 17.16C140.547 17.48 139.955 17.744 139.219 17.952C138.499 18.144 137.715 18.24 136.867 18.24C135.603 18.24 134.507 17.952 133.579 17.376C132.651 16.784 131.931 15.984 131.419 14.976C130.923 13.968 130.675 12.84 130.675 11.592C130.675 10.28 130.939 9.128 131.467 8.136C132.011 7.128 132.755 6.344 133.699 5.784C134.659 5.208 135.755 4.92 136.987 4.92ZM150.796 4.92C151.948 4.92 152.82 5.168 153.412 5.664C154.02 6.16 154.436 6.824 154.66 7.656C154.884 8.472 154.996 9.384 154.996 10.392V16.536C154.996 16.952 154.86 17.304 154.588 17.592C154.316 17.864 153.972 18 153.556 18C153.14 18 152.796 17.864 152.524 17.592C152.252 17.304 152.116 16.952 152.116 16.536V10.392C152.116 9.864 152.052 9.392 151.924 8.976C151.796 8.544 151.564 8.2 151.228 7.944C150.892 7.688 150.412 7.56 149.788 7.56C149.18 7.56 148.66 7.688 148.228 7.944C147.796 8.2 147.468 8.544 147.244 8.976C147.036 9.392 146.932 9.864 146.932 10.392V16.536C146.932 16.952 146.796 17.304 146.524 17.592C146.252 17.864 145.908 18 145.492 18C145.076 18 144.732 17.864 144.46 17.592C144.188 17.304 144.052 16.952 144.052 16.536V1.704C144.052 1.288 144.188 0.943999 144.46 0.671999C144.732 0.383999 145.076 0.24 145.492 0.24C145.908 0.24 146.252 0.383999 146.524 0.671999C146.796 0.943999 146.932 1.288 146.932 1.704V7.656L146.572 7.584C146.716 7.312 146.916 7.024 147.172 6.72C147.428 6.4 147.74 6.104 148.108 5.832C148.476 5.56 148.884 5.344 149.332 5.184C149.78 5.008 150.268 4.92 150.796 4.92ZM161.135 16.536C161.135 16.952 160.999 17.304 160.727 17.592C160.455 17.864 160.111 18 159.695 18C159.279 18 158.935 17.864 158.663 17.592C158.391 17.304 158.255 16.952 158.255 16.536V6.624C158.255 6.208 158.391 5.864 158.663 5.592C158.935 5.304 159.279 5.16 159.695 5.16C160.111 5.16 160.455 5.304 160.727 5.592C160.999 5.864 161.135 6.208 161.135 6.624V16.536ZM159.671 3.6C159.127 3.6 158.743 3.512 158.519 3.336C158.295 3.16 158.183 2.848 158.183 2.4V1.944C158.183 1.48 158.303 1.168 158.543 1.008C158.799 0.831999 159.183 0.743999 159.695 0.743999C160.255 0.743999 160.647 0.831999 160.871 1.008C161.095 1.184 161.207 1.496 161.207 1.944V2.4C161.207 2.864 161.087 3.184 160.847 3.36C160.607 3.52 160.215 3.6 159.671 3.6ZM171.481 8.37C171.709 8.37 171.919 8.43 172.111 8.55C172.303 8.658 172.447 8.826 172.543 9.054L175.189 15.102L174.793 15.282L177.493 9.072C177.697 8.592 178.015 8.364 178.447 8.388C178.747 8.388 178.987 8.484 179.167 8.676C179.359 8.856 179.455 9.084 179.455 9.36C179.455 9.444 179.437 9.534 179.401 9.63C179.377 9.726 179.347 9.816 179.311 9.9L175.945 17.316C175.753 17.748 175.447 17.976 175.027 18C174.799 18.036 174.577 17.994 174.361 17.874C174.157 17.754 174.001 17.568 173.893 17.316L170.545 9.9C170.521 9.84 170.491 9.762 170.455 9.666C170.431 9.57 170.419 9.456 170.419 9.324C170.419 9.108 170.515 8.898 170.707 8.694C170.899 8.478 171.157 8.37 171.481 8.37ZM185.836 18.18C184.816 18.18 183.928 17.97 183.172 17.55C182.428 17.118 181.852 16.536 181.444 15.804C181.048 15.072 180.85 14.244 180.85 13.32C180.85 12.24 181.066 11.322 181.498 10.566C181.942 9.798 182.518 9.21 183.226 8.802C183.934 8.394 184.684 8.19 185.476 8.19C186.088 8.19 186.664 8.316 187.204 8.568C187.756 8.82 188.242 9.168 188.662 9.612C189.082 10.044 189.412 10.548 189.652 11.124C189.904 11.7 190.03 12.312 190.03 12.96C190.018 13.248 189.904 13.482 189.688 13.662C189.472 13.842 189.22 13.932 188.932 13.932H182.056L181.516 12.132H188.122L187.726 12.492V12.006C187.702 11.658 187.576 11.346 187.348 11.07C187.132 10.794 186.856 10.578 186.52 10.422C186.196 10.254 185.848 10.17 185.476 10.17C185.116 10.17 184.78 10.218 184.468 10.314C184.156 10.41 183.886 10.572 183.658 10.8C183.43 11.028 183.25 11.334 183.118 11.718C182.986 12.102 182.92 12.588 182.92 13.176C182.92 13.824 183.052 14.376 183.316 14.832C183.592 15.276 183.94 15.618 184.36 15.858C184.792 16.086 185.248 16.2 185.728 16.2C186.172 16.2 186.526 16.164 186.79 16.092C187.054 16.02 187.264 15.936 187.42 15.84C187.588 15.732 187.738 15.642 187.87 15.57C188.086 15.462 188.29 15.408 188.482 15.408C188.746 15.408 188.962 15.498 189.13 15.678C189.31 15.858 189.4 16.068 189.4 16.308C189.4 16.632 189.232 16.926 188.896 17.19C188.584 17.454 188.146 17.688 187.582 17.892C187.018 18.084 186.436 18.18 185.836 18.18ZM193.228 18C192.916 18 192.658 17.898 192.454 17.694C192.25 17.478 192.148 17.214 192.148 16.902V9.468C192.148 9.156 192.25 8.898 192.454 8.694C192.658 8.478 192.916 8.37 193.228 8.37C193.54 8.37 193.798 8.478 194.002 8.694C194.206 8.898 194.308 9.156 194.308 9.468V11.16L194.182 9.954C194.314 9.666 194.482 9.414 194.686 9.198C194.902 8.97 195.142 8.784 195.406 8.64C195.67 8.484 195.952 8.37 196.252 8.298C196.552 8.226 196.852 8.19 197.152 8.19C197.512 8.19 197.812 8.292 198.052 8.496C198.304 8.7 198.43 8.94 198.43 9.216C198.43 9.612 198.328 9.9 198.124 10.08C197.92 10.248 197.698 10.332 197.458 10.332C197.23 10.332 197.02 10.29 196.828 10.206C196.648 10.122 196.438 10.08 196.198 10.08C195.982 10.08 195.76 10.134 195.532 10.242C195.316 10.338 195.112 10.494 194.92 10.71C194.74 10.926 194.59 11.196 194.47 11.52C194.362 11.832 194.308 12.204 194.308 12.636V16.902C194.308 17.214 194.206 17.478 194.002 17.694C193.798 17.898 193.54 18 193.228 18ZM201.03 15.462C201.138 15.462 201.252 15.48 201.372 15.516C201.504 15.552 201.648 15.624 201.804 15.732C202.008 15.888 202.248 16.026 202.524 16.146C202.812 16.266 203.142 16.326 203.514 16.326C203.886 16.326 204.234 16.236 204.558 16.056C204.894 15.864 205.17 15.6 205.386 15.264C205.602 14.916 205.71 14.502 205.71 14.022C205.71 13.566 205.614 13.188 205.422 12.888C205.242 12.588 204.996 12.36 204.684 12.204C204.384 12.048 204.06 11.97 203.712 11.97C203.448 11.97 203.226 11.994 203.046 12.042C202.878 12.09 202.71 12.144 202.542 12.204C202.386 12.252 202.2 12.276 201.984 12.276C201.708 12.276 201.492 12.18 201.336 11.988C201.192 11.796 201.12 11.568 201.12 11.304C201.12 11.136 201.15 10.986 201.21 10.854C201.282 10.722 201.384 10.578 201.516 10.422L204.684 7.056L205.17 7.47H200.742C200.454 7.47 200.214 7.374 200.022 7.182C199.83 6.99 199.734 6.75 199.734 6.462C199.734 6.186 199.83 5.958 200.022 5.778C200.214 5.586 200.454 5.49 200.742 5.49H206.25C206.622 5.49 206.898 5.592 207.078 5.796C207.27 6 207.366 6.258 207.366 6.57C207.366 6.726 207.324 6.882 207.24 7.038C207.156 7.182 207.054 7.314 206.934 7.434L203.748 10.854L203.262 10.242C203.394 10.182 203.574 10.128 203.802 10.08C204.042 10.032 204.24 10.008 204.396 10.008C205.104 10.008 205.716 10.194 206.232 10.566C206.76 10.926 207.162 11.4 207.438 11.988C207.726 12.564 207.87 13.188 207.87 13.86C207.87 14.748 207.672 15.516 207.276 16.164C206.88 16.812 206.322 17.31 205.602 17.658C204.882 18.006 204.042 18.18 203.082 18.18C202.638 18.18 202.2 18.126 201.768 18.018C201.336 17.91 200.964 17.766 200.652 17.586C200.388 17.442 200.208 17.286 200.112 17.118C200.028 16.938 199.986 16.77 199.986 16.614C199.986 16.338 200.082 16.08 200.274 15.84C200.478 15.588 200.73 15.462 201.03 15.462ZM211.038 17.982C210.69 17.982 210.42 17.892 210.228 17.712C210.048 17.52 209.958 17.25 209.958 16.902V16.596C209.958 16.248 210.048 15.984 210.228 15.804C210.42 15.612 210.69 15.516 211.038 15.516H211.272C211.62 15.516 211.884 15.612 212.064 15.804C212.256 15.984 212.352 16.248 212.352 16.596V16.902C212.352 17.25 212.256 17.52 212.064 17.712C211.884 17.892 211.62 17.982 211.272 17.982H211.038ZM215.644 15.462C215.752 15.462 215.866 15.48 215.986 15.516C216.118 15.552 216.262 15.624 216.418 15.732C216.622 15.888 216.862 16.026 217.138 16.146C217.426 16.266 217.756 16.326 218.128 16.326C218.5 16.326 218.848 16.236 219.172 16.056C219.508 15.864 219.784 15.6 220 15.264C220.216 14.916 220.324 14.502 220.324 14.022C220.324 13.566 220.228 13.188 220.036 12.888C219.856 12.588 219.61 12.36 219.298 12.204C218.998 12.048 218.674 11.97 218.326 11.97C218.062 11.97 217.84 11.994 217.66 12.042C217.492 12.09 217.324 12.144 217.156 12.204C217 12.252 216.814 12.276 216.598 12.276C216.322 12.276 216.106 12.18 215.95 11.988C215.806 11.796 215.734 11.568 215.734 11.304C215.734 11.136 215.764 10.986 215.824 10.854C215.896 10.722 215.998 10.578 216.13 10.422L219.298 7.056L219.784 7.47H215.356C215.068 7.47 214.828 7.374 214.636 7.182C214.444 6.99 214.348 6.75 214.348 6.462C214.348 6.186 214.444 5.958 214.636 5.778C214.828 5.586 215.068 5.49 215.356 5.49H220.864C221.236 5.49 221.512 5.592 221.692 5.796C221.884 6 221.98 6.258 221.98 6.57C221.98 6.726 221.938 6.882 221.854 7.038C221.77 7.182 221.668 7.314 221.548 7.434L218.362 10.854L217.876 10.242C218.008 10.182 218.188 10.128 218.416 10.08C218.656 10.032 218.854 10.008 219.01 10.008C219.718 10.008 220.33 10.194 220.846 10.566C221.374 10.926 221.776 11.4 222.052 11.988C222.34 12.564 222.484 13.188 222.484 13.86C222.484 14.748 222.286 15.516 221.89 16.164C221.494 16.812 220.936 17.31 220.216 17.658C219.496 18.006 218.656 18.18 217.696 18.18C217.252 18.18 216.814 18.126 216.382 18.018C215.95 17.91 215.578 17.766 215.266 17.586C215.002 17.442 214.822 17.286 214.726 17.118C214.642 16.938 214.6 16.77 214.6 16.614C214.6 16.338 214.696 16.08 214.888 15.84C215.092 15.588 215.344 15.462 215.644 15.462Z" fill="#FF9600"/>
</svg>
